<?xml version="1.0" encoding="UTF-8" standalone="no"?>
<!-- Created with Inkscape (http://www.inkscape.org/) -->

<svg
   version="1.1"
   id="svg1"
   width="2933.3333"
   height="2933.3333"
   viewBox="0 0 2933.3333 2933.3333"
   sodipodi:docname="ecacbcee-feca-4d83-a527-b40ad4f24f95.eps"
   xmlns:inkscape="http://www.inkscape.org/namespaces/inkscape"
   xmlns:sodipodi="http://sodipodi.sourceforge.net/DTD/sodipodi-0.dtd"
   xmlns="http://www.w3.org/2000/svg"
   xmlns:svg="http://www.w3.org/2000/svg">
  <defs
     id="defs1" />
  <sodipodi:namedview
     id="namedview1"
     pagecolor="#ffffff"
     bordercolor="#000000"
     borderopacity="0.25"
     inkscape:showpageshadow="2"
     inkscape:pageopacity="0.0"
     inkscape:pagecheckerboard="0"
     inkscape:deskcolor="#d1d1d1">
    <inkscape:page
       x="0"
       y="0"
       inkscape:label="1"
       id="page1"
       width="2933.3333"
       height="2933.3333"
       margin="0"
       bleed="0" />
  </sodipodi:namedview>
  <g
     id="g1"
     inkscape:groupmode="layer"
     inkscape:label="1">
    <g
       id="group-R5">
      <path
         id="path2"
         d="M 22000,0 H 0 V 22000 H 22000 V 0"
         style="fill:#ffffff;fill-opacity:1;fill-rule:nonzero;stroke:none"
         transform="matrix(0.13333333,0,0,-0.13333333,0,2933.3333)" />
      <path
         id="path3"
         d="m 17257.8,4003.3 c -189.5,-951.5 -1013.1,-1611.1 -1857.5,-1754.8 -844.3,-143.8 -1700.5,135.6 -2491.1,503.7 -35.5,16.6 -70.9,33.3 -106.3,50.2 -1141.5,544.2 -2464.3,544.2 -3605.76,-0.1 -35.38,-16.8 -70.81,-33.5 -106.3,-50.1 -790.56,-368.1 -1646.8,-647.5 -2491.22,-503.7 -844.42,143.7 -1667.82,803.3 -1857.33,1754.8 -193.03,968.5 298.92,1956.1 926.37,2643.4 627.44,687.3 1399.13,1187.2 2011.08,1892.5 539.52,621.6 936.95,1381.8 1395.91,2082.9 269.49,411.8 581.54,788.7 1010.85,1029.7 566,317.6 1261.1,317.6 1827.1,0 429.2,-241 741.2,-617.9 1010.8,-1029.7 458.8,-701.1 856.4,-1461.3 1395.8,-2082.9 611.9,-705.3 1383.6,-1205.2 2011.1,-1892.5 627.4,-687.3 1119.3,-1674.9 926.5,-2643.4"
         style="fill:#6f8f90;fill-opacity:1;fill-rule:nonzero;stroke:none"
         transform="matrix(0.13333333,0,0,-0.13333333,0,2933.3333)" />
      <path
         id="path4"
         d="m 9846,13603.3 c -504.19,-504.4 -1375.38,-599.2 -2060.79,-334.5 -922.94,356.6 -1503.61,1268 -1601.85,2188.8 -98.07,920.7 222.79,1842.7 692.95,2659.3 198.94,345.6 702.43,920.7 1350.12,920.7 1192.04,0 2125.77,-1586.8 2176.67,-3587.3 14.9,-584.1 -128.2,-1418.2 -557.1,-1847"
         style="fill:#6f8f90;fill-opacity:1;fill-rule:nonzero;stroke:none"
         transform="matrix(0.13333333,0,0,-0.13333333,0,2933.3333)" />
      <path
         id="path5"
         d="m 6653.03,9751 c -338.7,-623.9 -1143.34,-960.5 -1872.39,-901.5 -981.75,79.5 -1793.55,785.3 -2147.42,1636.3 -353.71,851.1 -308.13,1821.8 -90.18,2734.1 92.36,386.1 410.39,1077.3 1028.59,1260.2 1137.69,337 2477.28,-913.7 3091.17,-2808.7 179.36,-553.4 278.44,-1390 -9.77,-1920.4"
         style="fill:#6f8f90;fill-opacity:1;fill-rule:nonzero;stroke:none"
         transform="matrix(0.13333333,0,0,-0.13333333,0,2933.3333)" />
      <path
         id="path6"
         d="m 12154,13603.3 c 504.2,-504.4 1375.4,-599.2 2060.8,-334.5 922.9,356.6 1503.6,1268 1601.8,2188.8 98.1,920.7 -222.8,1842.7 -692.9,2659.3 -198.9,345.6 -702.4,920.7 -1350.1,920.7 -1192.1,0 -2125.8,-1586.8 -2176.7,-3587.3 -14.9,-584.1 128.2,-1418.2 557.1,-1847"
         style="fill:#6f8f90;fill-opacity:1;fill-rule:nonzero;stroke:none"
         transform="matrix(0.13333333,0,0,-0.13333333,0,2933.3333)" />
      <path
         id="path7"
         d="m 15347,9751 c 338.7,-623.9 1143.3,-960.5 1872.4,-901.5 981.7,79.5 1793.5,785.3 2147.4,1636.3 353.7,851.1 308.1,1821.8 90.2,2734.1 -92.4,386.1 -410.4,1077.3 -1028.6,1260.2 -1137.7,337 -2477.3,-913.7 -3091.2,-2808.7 -179.4,-553.4 -278.4,-1390 9.8,-1920.4"
         style="fill:#6f8f90;fill-opacity:1;fill-rule:nonzero;stroke:none"
         transform="matrix(0.13333333,0,0,-0.13333333,0,2933.3333)" />
      <path
         id="path8"
         d="m 16290.6,3541.4 c -185.4,-149 -380,-260.4 -606.6,-347.9 -2.2,-0.9 -3.8,-1.5 -5.1,-2 -2.3,-0.8 -5.1,-1.8 -8.4,-2.9 -10.8,-3.7 -21.5,-7.6 -32.3,-11.3 -27,-9.1 -54.1,-17.8 -81.4,-26 -54.9,-16.4 -110.3,-30.6 -166.2,-42.8 -5.8,-1.1 -17,-3.3 -21.9,-4.2 -15.8,-2.9 -31.6,-5.6 -47.4,-8.1 -37.6,-6.1 -75.4,-11.4 -113.2,-15.8 -37.6,-4.4 -75.4,-8.1 -113.2,-10.9 9.7,0.7 32.8,1.5 -11.6,-0.7 -26.5,-1.2 -52.9,-2.3 -79.3,-2.9 -71.9,-1.7 -143.5,0.1 -215.3,2.8 -7.6,0.3 -13.1,0.5 -17.1,0.6 -4,0.3 -9.5,0.8 -17.1,1.4 -15.1,1.2 -30.2,2.4 -45.2,3.8 -45.3,4.1 -90.6,9.1 -135.7,15 -158.1,20.7 -281.7,45.8 -432.7,84.8 -301.7,78 -593.9,186.6 -879.1,311.4 -292.6,128.1 -575.6,269.7 -880.7,367.2 -290.4,92.9 -592.2,155.7 -895.5,187 -619,63.8 -1251.6,6.2 -1845.97,-180.4 -301.53,-94.7 -581.08,-232.2 -869.16,-359.6 -284.94,-126 -576.52,-236.6 -877.85,-316.8 -150.62,-40.1 -268.55,-65.4 -421.08,-87.4 -170.36,-24.5 -274.52,-32.4 -441.53,-30.4 -37.8,0.5 -75.57,1.7 -113.33,3.5 -44.47,2.2 -21.37,1.4 -11.6,0.7 -22.68,1.6 -45.34,3.7 -67.97,6 -74.77,7.5 -148.4,19.6 -222.47,31.9 -1,0.2 -1.88,0.3 -2.68,0.4 -1.38,0.3 -2.87,0.7 -4.49,1 -11,2.5 -22.01,4.9 -32.99,7.5 -27.53,6.5 -54.94,13.5 -82.21,20.9 -58.45,16.1 -116.28,34.5 -173.26,55.2 -4.16,1.5 -9.41,3.5 -11.12,4.2 -16,6.4 -32.04,12.7 -47.96,19.3 -26.6,11 -53.01,22.6 -79.19,34.6 -55.28,25.3 -109.58,52.8 -162.79,82.2 -99.43,55.1 -185.99,112.8 -280.95,186.8 -188.24,146.8 -352.67,320.8 -483.97,520.4 -296.19,450.1 -392.87,987.1 -313.21,1517.1 83.62,556.6 350.15,1077.3 688.45,1521.5 354.54,465.5 810.2,843 1251.45,1222.6 459.84,395.6 902.57,803.6 1267.86,1290.6 371.1,494.8 674.93,1035 1004.98,1557 291.76,461.4 619.1,932.7 1111.74,1198.2 126.7,68.3 238.3,112.2 373.9,147.4 123.9,32.1 239.1,45.5 361.8,45.5 30.9,0 61.7,-1.5 92.5,-2.3 2,-0.1 3.6,-0.1 5,-0.1 2.9,-0.3 6.4,-0.7 10.5,-1.2 17,-1.8 34.1,-3.2 51.2,-5.2 82.3,-9.5 118.7,-16 182.6,-31.7 140.9,-34.7 254.8,-78.3 384.7,-147.4 493.9,-262.7 823.1,-732.7 1115,-1193.7 328.3,-518.7 630.2,-1055.7 997.6,-1548.7 363.9,-488.4 804.5,-898.2 1264.5,-1294.1 441.5,-380 898.5,-756.7 1255.6,-1220.7 340.6,-442.6 609.4,-961.8 697.8,-1517.3 43.4,-272.7 41.3,-550.5 -11.3,-821.7 -97.9,-480 -374.9,-908.6 -755.1,-1214.3 z M 16110.2,7856 c -453.9,422.1 -948.7,799.3 -1382,1243.7 -435.3,446.2 -772.9,970.1 -1098.2,1498.9 -315.6,513 -612.2,1059.5 -1045.2,1485.7 -443.3,436.4 -1041.3,686.4 -1667,659 -321.1,-14.1 -639,-88.4 -925.52,-236.4 -257.87,-133.2 -486.11,-317.6 -681.67,-531.1 C 8894.06,11521 8599.15,10965.8 8275.1,10445.1 7946.45,9917.1 7594.24,9411.1 7147.35,8975.4 6703.32,8542.5 6207.7,8166.7 5762.35,7735.2 5339.61,7325.6 4970.64,6859.7 4736.59,6315.8 4507.71,5783.9 4409.93,5184.4 4562.57,4618 c 135.09,-501.4 446.32,-937.9 864.27,-1244.6 455.3,-334 996.03,-497.2 1557.84,-512.5 684.19,-18.7 1354.85,181.3 1978.33,447.1 284.38,121.3 560.35,267 849.29,361 295,95.9 550.1,148.5 857.7,177.1 21.4,2 42.8,3.7 64.3,5.5 5.7,0.4 10.2,0.8 13.7,1.1 33.8,2.1 67.7,3.7 101.6,4.9 78.7,2.8 157.6,3.5 236.4,1.8 35.8,-0.7 71.6,-1.9 107.4,-3.6 17.9,-0.8 35.8,-1.8 53.7,-2.9 7,-0.5 24.4,-1.8 29.4,-2.2 78.6,-6.3 157.1,-14.8 235.3,-25.5 281.4,-38.6 563.8,-108.4 838.5,-213 299.7,-114.1 583.3,-266.7 881.8,-384.2 318.9,-125.6 644.3,-228.9 980.8,-295.4 610.4,-120.5 1256.4,-101.3 1835,141.4 467.9,196.3 881.4,538.1 1146.7,972 133.6,218.4 224.2,459.2 275.3,709.7 113.2,583.1 -18.4,1183.4 -275.9,1711.1 -261.3,535.4 -650.1,985.9 -1083.8,1389.2"
         style="fill:#2c2d2e;fill-opacity:1;fill-rule:nonzero;stroke:none"
         transform="matrix(0.13333333,0,0,-0.13333333,0,2933.3333)" />
      <path
         id="path9"
         d="m 8436.38,19692.7 c -5.47,1.2 -10.79,2.7 -15.53,4.7 -0.23,0 -0.46,0.1 -0.68,0.1 11.57,-5.4 18.41,-6.3 16.21,-4.8"
         style="fill:#2c2d2e;fill-opacity:1;fill-rule:nonzero;stroke:none"
         transform="matrix(0.13333333,0,0,-0.13333333,0,2933.3333)" />
      <path
         id="path10"
         d="m 6605.59,17835.4 c 105.37,305 241.09,598.7 395.9,881.5 108.85,198.9 231.58,383.3 389.42,547.1 79.92,83 166.02,161 259.92,227.9 51.25,36.5 104.46,70.4 159.55,100.8 26.71,14.8 53.86,28.7 81.44,41.9 8.51,4 17.1,7.8 25.64,11.8 -0.25,-0.1 8.94,3.9 11.94,5.3 6.72,2.7 26.3,10.5 34.02,13.4 28.85,10.8 58.08,20.7 87.65,29.4 8.31,2.4 54.54,13.6 20.06,6 16.4,3.6 32.72,7.4 49.21,10.5 9.21,1.8 42.45,12.6 49.89,8.5 0.25,-0.1 -36.58,-3.8 -13.63,-2.1 7.27,0.5 14.54,1.6 21.8,2.3 14.15,1.3 30.16,0.2 43.97,3.2 -50.67,-11.1 -4.22,-0.7 14.27,-0.8 7.25,0 14.51,-0.2 21.76,-0.4 22.57,-1.7 45.04,-3.8 67.55,-6.2 8.97,-1.5 17.99,-2.7 26.93,-4.3 22.54,-4 44.98,-8.6 67.29,-13.7 -0.47,0.3 -0.9,0.4 -1.37,0.7 0.63,-0.3 1.39,-0.5 2.05,-0.8 0.33,-0.1 0.66,-0.1 0.99,-0.2 8.71,-2 13.22,-3.7 14.54,-4.5 5.68,-1.3 11.41,-2.4 16.4,-3.9 22.63,-6.5 45.1,-13.7 67.37,-21.3 19.19,-6.6 38.22,-13.7 57.11,-21.1 9.39,-3.6 25.07,-10.4 19.9,-8.1 7.59,-3.3 15.2,-6.6 22.75,-10.1 85.6,-39.1 167.47,-86.2 245.08,-139.4 43.18,-29.6 70.77,-50.4 104.71,-78.1 38.86,-31.7 76.5,-64.9 112.97,-99.3 76.19,-72 147.18,-149.4 213.38,-230.6 303.87,-372.9 509.51,-820 649.36,-1277.7 164.79,-539.4 249.49,-1112.2 250.69,-1676.2 0.5,-253.2 -25.6,-507.3 -77.7,-755.1 -52.5,-249.4 -131.58,-496.7 -260.67,-717.6 -59.39,-101.7 -129.53,-196.6 -212.39,-280.4 -87.5,-86.6 -184.66,-160 -291.56,-221.1 -116.75,-66.9 -204.53,-103.4 -333.98,-142.2 -13.83,-4.1 -27.7,-8.1 -41.61,-11.9 -7.37,-2 -24.23,-6.1 -25.32,-6.5 -29.24,-6.7 -58.49,-13.3 -87.99,-18.9 -16.71,-3.2 -33.47,-6.1 -50.25,-8.9 -3,-0.5 -12.89,-2 -21.16,-3.3 -7.25,-0.9 -31.38,-4.1 -37.83,-4.8 -17.02,-1.9 -34.06,-3.6 -51.12,-5.1 -17.08,-1.4 -34.19,-2.7 -51.3,-3.8 -1.88,-0.1 -3.76,-0.2 -5.65,-0.3 -32.69,3.1 -68.1,-1.9 -101.06,-1.5 -12.6,0.1 -25.2,0.5 -37.8,0.8 -5.79,0.5 -11.91,0.4 -17.55,0.7 -34.41,2.1 -68.76,4.9 -103.03,8.6 -14.24,1.5 -28.42,3.4 -42.65,5 -5.79,0.8 -11.6,1.7 -17.39,2.6 -33.96,5.3 -67.79,11.5 -101.46,18.4 -14.41,2.9 -28.78,6 -43.13,9.3 -9.55,2.1 -19.08,4.4 -28.6,6.7 -0.74,0.1 -3.84,0.9 -6.97,1.7 -7.36,2.1 -24.77,6.8 -28.94,8 -18.77,5.3 -37.46,10.8 -56.08,16.6 -129.13,40.1 -224.82,80.8 -343.53,143.5 -230.68,121.9 -437.08,282.5 -615.08,473 -352.85,377.7 -589.63,858 -683.18,1365.6 -112.71,611.7 -16.94,1246.6 184.47,1829.4 z m -62.36,-3042.8 c 351.84,-456.4 847.89,-780.9 1408.76,-913.9 303.34,-71.9 626.77,-88.5 936.12,-50.8 294.23,35.8 586.52,115.4 843.31,266.9 114.35,67.5 220.9,149.5 315.18,242.9 182.9,184.9 301.5,422.7 386.5,666 89.9,257 141.1,527.7 164.9,798.6 24.8,282.1 13.1,565.7 -13.3,847.3 -27.9,297.5 -76.4,593.4 -148.5,883.5 -125.1,503.5 -320.2,1002.2 -620.85,1428.1 -246.59,349.2 -574.9,648.9 -981.82,795.5 -519.19,187.1 -1118.51,115.8 -1564.54,-212.6 -195.98,-144.3 -367.25,-320.4 -506.34,-520.2 -167.74,-240.8 -297.86,-515.3 -414.66,-783.7 -265.36,-609.7 -432.66,-1272.9 -380.87,-1941.7 42,-542.3 243.72,-1074.8 576.11,-1505.9"
         style="fill:#2c2d2e;fill-opacity:1;fill-rule:nonzero;stroke:none"
         transform="matrix(0.13333333,0,0,-0.13333333,0,2933.3333)" />
      <path
         id="path11"
         d="m 4881.13,9704.3 c -14.4,0.4 -28.78,1.2 -43.16,1.8 -2.42,0.1 -8.05,0.5 -11.82,0.8 -2.9,0.2 -5.04,0.4 -5.54,0.4 -64.86,5.7 -129.48,14.2 -193.62,25.4 -17.13,3 -34.23,6.2 -51.28,9.6 -4.47,0.9 -23.93,5.1 -31.06,6.6 -10.48,2.5 -24.44,5.8 -28.07,6.7 -16.74,4.2 -33.42,8.5 -50.06,13.1 -63.87,17.4 -126.99,37.5 -189.17,60.2 -16.05,5.9 -31.92,12.3 -47.97,18.1 -0.55,0.2 -0.95,0.4 -1.43,0.5 -3.64,1.5 -7.28,3 -10.91,4.6 -31.45,13.1 -62.62,26.9 -93.49,41.3 -59.39,27.8 -117.67,58 -174.69,90.4 -27.41,15.5 -54.52,31.6 -81.33,48.2 -12.37,7.6 -24.68,15.4 -36.91,23.2 -6.12,4 -12.23,7.9 -18.31,11.9 0.64,-0.4 -15.55,10.4 -21.08,14 -3.12,2.2 -6.54,4.5 -6.79,4.7 -5.94,4.2 -11.92,8.3 -17.85,12.5 -13.84,9.8 -27.59,19.7 -41.24,29.7 -27.29,20.1 -54.2,40.7 -80.7,61.8 -100.2,79.8 -194.7,166.7 -282.79,259.6 -91.71,96.8 -159.81,179.9 -235.24,286.8 -74.44,105.5 -141.63,216.1 -200.73,330.8 -283.59,550.7 -368.81,1180.9 -340,1794 15.2,323.2 61.72,644.6 130.03,960.8 8.31,38.5 16.95,76.9 25.91,115.2 3.73,16 7.64,31.9 11.4,47.9 0.03,0.1 0.04,0.1 0.07,0.3 0.86,3.2 1.7,6.5 2.6,9.7 11.7,42.3 24.54,84.2 38.81,125.7 32.85,95.4 72.21,188.7 117.52,279 49.22,98 105.53,192.6 169.65,281.6 16.23,22.5 32.99,44.6 50.2,66.4 0.57,0.7 0.98,1.3 1.42,1.8 0.56,0.7 1.22,1.5 2.02,2.4 4.14,5 8.26,10 12.44,14.9 9.76,11.5 19.69,22.8 29.76,34.1 39.08,43.5 80.51,85 124.4,123.7 21.24,18.7 43.06,36.8 65.44,54.2 12.08,9.4 24.32,18.6 36.73,27.5 5.33,3.9 10.74,7.6 16.09,11.4 0.09,0.1 0.14,0.1 0.23,0.2 0.05,0 0.07,0 0.12,0.1 50.54,32.2 102.49,61.5 157.17,86.2 9.7,4.4 22.74,9.7 21.51,9.3 10.28,3.9 20.58,7.7 30.97,11.3 26.39,9.1 53.12,17.1 80.08,24.3 9.81,2.6 19.66,5 29.49,7.5 0.4,0.1 0.73,0.2 1.11,0.3 21,4.1 41.99,8.1 63.15,11.3 21.51,3.3 43.1,6 64.75,8.2 4.71,0.5 9.44,0.9 14.16,1.3 3.62,0.2 7.24,0.5 10.85,0.6 42.96,1.8 85.82,1.2 128.76,-0.6 7.62,-0.7 15.25,-1.3 22.87,-2.1 23.71,-2.5 47.36,-5.6 70.93,-9.2 22.06,-3.4 44.05,-7.3 65.95,-11.6 1.21,-0.3 2.42,-0.5 3.63,-0.7 9.33,-2.4 18.85,-4.4 28.13,-6.7 46.24,-11.7 91.97,-25.3 137.09,-40.7 22.13,-7.6 44.03,-15.8 65.92,-24 1.32,-0.5 2.33,-0.9 3.41,-1.3 11.88,-5 23.82,-9.9 35.66,-15.1 93.67,-40.9 184.17,-89 271.3,-142.4 21.76,-13.4 43.31,-27.1 64.65,-41.1 10.79,-7 28.93,-19.8 7.24,-4.6 13.15,-9.2 26.4,-18.2 39.48,-27.5 43.33,-30.7 85.76,-62.7 127.31,-95.7 90.17,-71.8 176.2,-148.7 258.34,-229.5 181.89,-178.9 326.71,-354.8 470.73,-559.9 326.09,-464.6 572.9,-983.7 751.71,-1521.6 163.91,-493.1 246,-1061.1 130.62,-1577.3 -25.51,-114.2 -68.14,-229.4 -124.4,-334.4 -61.99,-112.9 -126.22,-200.9 -208.57,-287.2 -43.53,-45.7 -89.77,-88.7 -138.21,-129.1 -23.49,-19.6 -47.5,-38.6 -71.98,-57 -11.34,-8.5 -22.78,-16.8 -34.32,-25.1 -5.78,-4.1 -11.61,-8.1 -17.42,-12.2 -2.46,-1.8 -3.88,-2.8 -4.68,-3.4 -1.31,-0.8 -2.55,-1.6 -4.17,-2.7 -106.48,-69.3 -218.4,-126.3 -334.93,-176.5 -6.91,-2.7 -13.8,-5.4 -20.72,-8 -13.61,-5.2 -27.26,-10.2 -40.97,-15.1 -32.04,-11.3 -64.35,-22 -96.88,-31.8 -30.26,-9.2 -60.73,-17.7 -91.35,-25.6 -16.51,-4.3 -33.08,-8.2 -49.65,-12.2 -0.28,-0.1 -0.65,-0.2 -1.07,-0.3 -5.26,-1.1 -11.71,-2.4 -13.68,-2.8 -64.37,-13 -129.32,-23.2 -194.59,-30.5 -14.47,-1.6 -28.96,-3 -43.47,-4.4 -7.68,-0.7 -16.23,-0.7 -24.07,-1.7 -29.18,-1.4 -58.32,-2.7 -87.55,-3.1 -31.3,-0.4 -62.61,-0.2 -93.89,0.8 z m 166.33,-214.5 c 572.31,27.1 1171.82,233.3 1569.3,661.4 91.04,98.1 171.55,206.3 236,323.6 130.68,244 179.72,527.9 187.98,802.1 8.61,285.8 -26.06,573.3 -89.78,851.8 -66.79,291.8 -168.07,575.4 -284.45,850.9 -114.93,272.1 -248.93,536.3 -403.8,787.8 -269.82,438.3 -605.67,852.8 -1021.76,1160.1 -369.5,273 -801.88,460.2 -1266.54,467.7 -244,3.9 -493.27,-43.9 -713.75,-149.8 -235.36,-112.9 -426.9,-296.7 -578.24,-506.8 -303.8,-421.8 -407.21,-939 -472.39,-1445.1 -85.58,-664.6 -53.15,-1352.5 184.17,-1984.6 193.07,-514.2 540.5,-975.1 985.16,-1298.4 479.59,-348.7 1072.03,-549 1668.1,-520.7"
         style="fill:#2c2d2e;fill-opacity:1;fill-rule:nonzero;stroke:none"
         transform="matrix(0.13333333,0,0,-0.13333333,0,2933.3333)" />
      <path
         id="path12"
         d="m 13357.6,19583 c -3.2,-1.2 -6.4,-2.4 -9.7,-3.6 -1,-0.4 -2.1,-0.8 -3.2,-1.3 10.4,3.6 13.9,5.1 12.9,4.9"
         style="fill:#2c2d2e;fill-opacity:1;fill-rule:nonzero;stroke:none"
         transform="matrix(0.13333333,0,0,-0.13333333,0,2933.3333)" />
      <path
         id="path13"
         d="m 11824.9,16574.8 c 23.7,289.5 66.8,577.5 131.7,860.6 110.4,481.4 293.2,965.3 565.9,1383.1 30.8,47.1 63.1,93 96,138.7 2.1,2.9 3.4,4.7 4.3,6 0.9,1.1 2.2,2.8 4,5.2 8.7,11.3 17.3,22.5 26.1,33.7 17.3,22 34.9,43.8 52.9,65.3 65.7,78.3 135.9,152.9 211.2,222.2 36.7,33.7 74.6,66.2 113.7,97.3 14.7,11.6 29.7,23 44.7,34.3 2.5,1.7 10.6,7.7 18.3,13 10.2,7.1 20.5,14.1 30.9,21 39.4,26.1 79.9,50.7 121.4,73.5 19.7,10.8 39.6,21.2 59.8,31.1 9.2,4.6 18.5,9.1 27.8,13.4 4,1.9 7.7,3.5 11.1,4.9 -2,-0.6 -4.1,-1.4 -6.5,-2.2 3.3,1.1 6.5,2.4 9.7,3.5 5.3,2.2 9,3.4 9.7,3.6 36.3,13.4 71.9,29.1 108.9,40.9 20.8,6.7 41.8,12.9 62.9,18.6 5.6,1.5 11.3,2.8 17,4.2 3.8,0.9 7.7,1.8 11.5,2.6 42.7,8.9 85.9,15.6 129.2,20.3 2.8,0.3 9.6,0.9 16,1.4 1.7,0.1 3.2,0.2 4.3,0.3 24.5,1.2 49.1,1.7 73.6,1.6 16.9,-0.1 33.7,-0.9 50.6,-1.5 1.3,-0.2 2.8,-0.4 4.6,-0.6 33.6,-4.3 67,-8.8 100.2,-15.4 5.5,-1.1 11,-2.3 16.5,-3.5 12.7,-3.6 25.5,-6.8 38.1,-10.5 31.9,-9.4 63.3,-20.1 94.3,-32 12.1,-4.6 24,-9.5 36,-14.3 0.1,-0.1 0.1,-0.1 0.2,-0.2 6.3,-3.1 12.8,-5.9 19.2,-8.9 29.7,-14.1 58.9,-29.2 87.6,-45.2 26.5,-14.9 52.6,-30.5 78.3,-46.8 11.7,-7.5 23.4,-15.1 35,-22.9 5.8,-3.9 11.6,-7.8 17.3,-11.8 -0.4,0.3 10.7,-7.5 17.2,-12 5.4,-4.1 19.8,-14.7 23.2,-17.3 12.8,-9.8 25.4,-19.7 37.9,-29.8 24.8,-20 49.1,-40.6 72.9,-61.8 43.1,-38.3 84.6,-78.5 124.5,-120.1 39.4,-41.2 77.2,-83.9 113.4,-127.9 16.6,-20 32.5,-40.5 48.6,-61 1,-1.3 2.9,-3.8 4.5,-6 1.9,-2.5 3.8,-5.1 5.7,-7.7 7.7,-10.6 15.4,-21.2 22.9,-31.9 160.9,-228.5 285.5,-488.5 399.1,-743 258.5,-579.4 423.7,-1206.5 393.9,-1844.9 -24.4,-523.8 -193,-1027 -498.4,-1460.7 -64.2,-91.1 -144.8,-188.7 -232.6,-280.1 -91,-94.6 -189.3,-182.2 -294.2,-261.3 -5.6,-4.2 -11.2,-8.4 -16.7,-12.5 -1.2,-0.8 -2.5,-1.7 -4,-2.8 -12,-8.4 -24,-16.9 -36.1,-25.2 -28.4,-19.4 -57.1,-38.2 -86.3,-56.3 -56.7,-35.2 -114.8,-68 -174.3,-98.2 -28.9,-14.7 -58,-28.7 -87.5,-42.2 -11.4,-5.2 -41.5,-17.6 -12.9,-5.9 -18.6,-7.6 -37.1,-15.5 -55.8,-22.8 -59,-23.2 -118.9,-43.7 -179.7,-61.5 -16.4,-4.8 -32.8,-9.3 -49.3,-13.7 -2.6,-0.7 -10.4,-2.8 -17.8,-4.7 3.8,1.2 -33.2,-7.8 -39.6,-9.1 -16.8,-3.6 -33.7,-7 -50.5,-10.1 -65.3,-12.3 -131.1,-21.6 -197.2,-28 -5.8,-0.6 -11.6,-1.1 -17.5,-1.6 -12.5,-0.7 -25.1,-1.6 -37.6,-2.1 -34.5,-1.7 -68.9,-2.5 -103.3,-2.5 -32,0 -63.9,0.6 -95.8,2 -12.1,0.5 -24.1,1.2 -36.1,1.9 -8.4,1.4 -17.6,1.3 -26,2.1 -65.4,6.4 -130.6,15.8 -195.2,28.3 -14.3,2.8 -28.6,5.7 -42.8,8.8 -0.3,0 -1.1,0.2 -2.2,0.5 -0.9,0 -4.3,0.6 -11.6,2.5 -2.3,0.6 -4.5,1.2 -6.7,1.7 -0.3,0 -0.7,0 -0.7,0 0,0 0.2,0.1 0.3,0.2 -30.2,7.8 -60.4,16 -90.3,25.2 -29.7,9.2 -59.3,19.1 -88.5,29.7 -13.4,4.9 -26.8,10 -40.2,15.2 -6.6,2.6 -13.3,5.2 -19.9,7.9 -2,0.8 -10.2,4.2 -16.9,7 -7.3,3.3 -22.2,10 -25.8,11.7 -12.8,6 -25.6,12.2 -38.3,18.5 -29.5,14.8 -58.6,30.4 -87.1,46.9 -26.5,15.3 -52.4,31.3 -77.9,48.1 -13.7,9 -27.2,18.4 -40.7,27.8 -0.1,0.1 -0.2,0.2 -0.4,0.3 -4.1,3 -8.2,6.1 -12.3,9.2 -50.2,38.5 -97.7,80.2 -142.6,124.8 -36.7,37 -85.1,92.9 -108.4,124.3 1.1,-1.3 -13.8,19.7 -17.4,24.8 -8.9,13 -17.7,26.1 -26.3,39.3 -17.3,26.8 -33.9,54.1 -49.7,81.9 -63.1,111.1 -114.1,229 -156.3,349.6 -84.6,242.3 -131.3,487.9 -155.5,746.4 -24.7,264.3 -16.9,529.4 4.8,793.6 z m 2756.3,-2193.2 c 5.7,4.2 17.2,12.2 0,0 z m -1284.2,-383 c -1.8,0.1 -3.7,0.2 -5.5,0.3 -31.2,1.8 -7,0.8 5.5,-0.3 z m -1556,606.4 c 64.9,-111.2 142.7,-216.7 233.3,-308.3 415.8,-411.8 1040.1,-569.9 1612,-530.8 602.8,41.3 1168.5,287.1 1603.1,709.1 398.9,387.3 665.8,892.4 785.8,1433.1 139.9,630.5 49.2,1291.9 -151.9,1898.8 -107.2,323.7 -248,635.7 -410.5,935.3 -116.7,215.2 -248.9,416.7 -418.8,594.2 -191.9,200.4 -420.8,364.2 -678.8,467.5 -257.9,103.3 -545.4,126.5 -818.5,80.5 -432.1,-72.8 -811.4,-316.5 -1100,-640.7 -334.3,-375.4 -563.6,-835.6 -719.5,-1310.6 -186.9,-569.3 -282.3,-1175.3 -289.2,-1774.3 -3,-261.3 22.7,-523.9 76,-779.8 55.9,-268.5 137.9,-536 277,-774"
         style="fill:#2c2d2e;fill-opacity:1;fill-rule:nonzero;stroke:none"
         transform="matrix(0.13333333,0,0,-0.13333333,0,2933.3333)" />
      <path
         id="path14"
         d="m 13014.6,14042.6 c 0.2,-0.1 0.3,-0.1 0.4,-0.2 2.9,0.1 13.6,-2.9 18.3,-4.2 2.8,0.2 -15.3,6.4 -18.7,4.4"
         style="fill:#2c2d2e;fill-opacity:1;fill-rule:nonzero;stroke:none"
         transform="matrix(0.13333333,0,0,-0.13333333,0,2933.3333)" />
      <path
         id="path15"
         d="m 19231.9,11429.6 c -170.8,-501.1 -482.7,-948.5 -897.4,-1278.6 -196.8,-156.5 -428.8,-289.2 -656.2,-374.3 -49,-18.4 -120.9,-41.3 -179.6,-57.4 -30.9,-8.6 -62.1,-15.9 -93.2,-23.7 -0.4,-0.1 -0.7,-0.2 -1,-0.2 -5.1,-1.1 -10.1,-2.2 -15.1,-3.2 -19.5,-4 -39,-7.7 -58.5,-11.2 -32,-5.7 -64,-10.4 -96.1,-15 -2.1,-0.3 -3.9,-0.6 -5.4,-0.8 -1.4,-0.1 -3,-0.3 -4.9,-0.5 -20.1,-2 -40.1,-4.1 -60.2,-5.7 -14.3,-1.1 -28.6,-2.1 -43,-3 -2.2,-0.1 -4.5,-0.2 -6.7,-0.4 -31.9,1.8 -64.9,-1.3 -96.9,-0.8 -1.9,0 -4.5,-0.1 -7.4,-0.2 -0.8,0.1 -1.6,0.1 -2.7,0.2 -14.5,0.9 -29,1.5 -43.5,2.5 -16.9,1.1 -33.8,2.5 -50.7,4 -3.9,0.4 -16.3,1.6 -26.2,2.5 -2.4,0.5 -34.3,4.4 -40.1,5.2 -14.5,2.1 -28.9,4.3 -43.3,6.7 -30.5,5 -60.7,10.9 -90.9,17 6.4,-1.1 -24,5.4 -31.7,7.3 -14.2,3.5 -28.4,7.1 -42.5,10.8 -32.9,8.7 -65.6,18.1 -98.1,28.4 -67.4,21.1 -101.6,33.7 -165.4,60.9 -230.6,98.1 -442.4,237.2 -613.4,421.3 -83.7,90.2 -155.9,190 -215.1,297.8 -123.3,230.3 -165.4,499.3 -173.2,757.7 -8.2,273.7 23.4,548.8 81.8,816 59.1,270.6 151.9,533.4 256.6,789.5 108.3,265.1 235.1,522.7 381.5,768.9 253.5,426.5 567.1,827.4 956.3,1138.4 160.4,128.2 331.4,237.1 521.3,320.7 21.8,9.6 43.7,18.8 65.8,27.6 8.7,3.5 17.5,6.9 26.3,10.2 3.2,1.1 16.6,6 22.4,8 45.1,15.6 90.9,29.4 137.1,41.2 10.1,2.6 20.3,4.9 30.5,7.5 0.3,0 0.6,0.1 1,0.2 0.8,0.2 1.7,0.4 2.7,0.6 23.7,4.6 47.3,9.1 71.1,12.8 9.4,1.5 18.8,2.8 28.2,4.1 21.8,2 43.5,3.7 65.4,5.3 8.1,0.1 16.1,0.3 24.2,0.3 9,0 18.1,-0.1 27.1,-0.2 19.6,-1.4 39.2,-3 58.8,-4.8 11.6,-1.7 23.1,-3.4 34.6,-5.3 19.4,-3.2 39.8,-10 59.4,-11.3 -2.2,0.1 -4,0.3 -5.7,0.4 2.9,-0.4 5.8,-0.9 8.1,-1.5 11.5,-2.9 22.9,-5.9 34.3,-9.1 62.3,-17.4 85.2,-25.7 145.7,-54.3 209.9,-99.2 379.9,-265.8 513.8,-453.1 286,-400 384.5,-880.5 449.2,-1359.5 85.4,-633.1 68.4,-1290.8 -139.1,-1899.9 z M 16988.8,9655.5 c -0.1,0 11.7,-0.6 19.5,-1 -6.8,-0.2 -14.7,-0.4 -19.5,1 z m 2842.1,3142.4 c -11.6,341.5 -59,681.2 -130.6,1015 -46.9,218.3 -110.5,425.3 -210.4,625.7 -105.3,211.2 -244.1,409.6 -423.3,564.7 -195,168.9 -428.3,270.7 -681.4,315.1 -462.1,81 -945.1,-11.1 -1353.2,-238.7 -427.1,-238.3 -779.8,-595.3 -1067.4,-987 -350.8,-477.9 -614.7,-1019.4 -805,-1579.7 -177.1,-521.7 -274.8,-1116.4 -148.3,-1660.7 29.5,-127 74.3,-249.5 135.9,-364.6 270.8,-492.8 799,-776.2 1332.8,-892.1 600,-130.4 1253.3,-49.8 1800.3,230.1 484.6,248 889,646 1152.8,1121.3 312,562.1 419.6,1214.1 397.8,1850.9"
         style="fill:#2c2d2e;fill-opacity:1;fill-rule:nonzero;stroke:none"
         transform="matrix(0.13333333,0,0,-0.13333333,0,2933.3333)" />
      <path
         id="path16"
         d="m 18219.9,15207 c -13.8,1.9 -29.2,2.2 0,0 v 0"
         style="fill:#2c2d2e;fill-opacity:1;fill-rule:nonzero;stroke:none"
         transform="matrix(0.13333333,0,0,-0.13333333,0,2933.3333)" />
    </g>
  </g>
</svg>
